Coordinates
version=1
nRows=8
nColumns=40
inDegrees=yes

Units are S.I. units (second, meters, Newtons, ...)
If the header above contains a line with 'inDegrees', this indicates whether rotational values are in degrees (yes) or radians (no).

endheader
time	pelvis_tilt	pelvis_list	pelvis_rotation	pelvis_tx	pelvis_ty	pelvis_tz	hip_flexion_r	hip_adduction_r	hip_rotation_r	knee_angle_r	knee_angle_r_beta	ankle_angle_r	subtalar_angle_r	mtp_angle_r	hip_flexion_l	hip_adduction_l	hip_rotation_l	knee_angle_l	knee_angle_l_beta	ankle_angle_l	subtalar_angle_l	mtp_angle_l	lumbar_extension	lumbar_bending	lumbar_rotation	arm_flex_r	arm_add_r	arm_rot_r	elbow_flex_r	pro_sup_r	wrist_flex_r	wrist_dev_r	arm_flex_l	arm_add_l	arm_rot_l	elbow_flex_l	pro_sup_l	wrist_flex_l	wrist_dev_l
      0.00000000	     -9.17343211	     -6.34633157	      0.98134724	     -0.24320616	      1.16764618	     -0.01644020	     77.24987374	     -7.53358609	     -6.59858446	     94.25706819	      1.64509618	     19.08161034	      4.27321622	      0.00000000	     46.63979068	    -13.60571549	      5.42743023	     70.96012756	      1.23848786	      1.85104131	     -6.39064988	      0.00000000	    -64.40811791	      5.93794016	      7.75289843	     89.29177698	    -16.23648683	     55.01083885	     33.72495523	     70.35638453	      0.00000000	      0.00000000	     83.67827896	    -12.91553109	     35.63011547	     37.48793995	     62.60443102	      0.00000000	      0.00000000
      0.00833333	     -8.52206749	     -6.00377209	      1.28606709	     -0.24261071	      1.16797714	     -0.01707819	     75.46747917	     -7.90935563	     -6.78348541	     92.10833046	      1.60759364	     18.65162341	      4.59202531	      0.00000000	     46.90475029	    -13.23102770	      5.61769786	     73.47280155	      1.28234230	      2.74575775	     -6.09152390	      0.00000000	    -64.94687807	      5.90173751	      7.29154404	     89.30023460	    -16.11408314	     55.64214267	     33.72996261	     68.16851299	      0.00000000	      0.00000000	     83.73388446	    -13.02604399	     36.09166992	     37.73015923	     60.91710417	      0.00000000	      0.00000000
      0.01666667	     -8.21739673	     -5.92959293	      1.38011857	     -0.24264530	      1.16813303	     -0.01736858	     74.03346938	     -7.89739636	     -7.03698738	     89.88532318	      1.56879484	     17.77667579	      4.57303747	      0.00000000	     47.67737961	    -13.12313823	      6.08955415	     76.01679399	      1.32674334	      3.60824595	     -5.33186091	      0.00000000	    -65.21149071	      5.85986679	      7.24110697	     89.12459233	    -16.35612863	     54.64410125	     33.07003475	     73.33030979	      0.00000000	      0.00000000	     83.87304591	    -12.66230327	     35.32147734	     37.07420701	     63.33847561	      0.00000000	      0.00000000
      0.02500000	     -8.31859883	     -5.64100993	      1.35672299	     -0.24364262	      1.16799633	     -0.01725933	     72.98798048	     -7.39874403	     -6.83994109	     87.30459061	      1.52375256	     16.80712476	      3.64042908	      0.00000000	     48.87719241	    -12.85770668	      6.29483437	     78.56048127	      1.37113906	      3.70650992	     -5.72034982	      0.00000000	    -65.09535815	      5.57182521	      6.86137841	     89.09000469	    -16.24111412	     54.08980549	     32.81686680	     73.36055355	      0.00000000	      0.00000000	     84.23900830	    -13.01619422	     35.70431908	     36.71175159	     64.27762889	      0.00000000	      0.00000000
      0.03333333	     -7.86807327	     -5.30583619	      1.74014599	     -0.24295168	      1.16815277	     -0.01788357	     71.26211760	     -7.94642028	     -7.11736937	     85.26416250	      1.48814037	     16.10462094	      3.83487807	      0.00000000	     49.44937995	    -12.18954424	      6.73858196	     81.09779357	      1.41542351	      4.77046414	     -5.94030734	      0.00000000	    -65.45933731	      5.60732333	      6.33747154	     88.91987485	    -16.31423337	     53.81251219	     33.11576939	     72.28506097	      0.00000000	      0.00000000	     84.51579898	    -12.67545569	     36.02786046	     36.57533362	     62.92599067	      0.00000000	      0.00000000
      0.04166667	     -8.18603322	     -5.26707091	      1.43108521	     -0.24414459	      1.16788013	     -0.01749469	     70.15258163	     -7.10228910	     -7.14824964	     82.34531797	      1.43719692	     15.16453092	      2.88514716	      0.00000000	     50.96445757	    -12.39694882	      6.86590167	     83.59409645	      1.45899222	      5.28666335	     -5.64361743	      0.00000000	    -65.13754495	      5.27712107	      6.33274413	     88.93244688	    -15.95710721	     53.75195077	     32.62790373	     72.72901500	      0.00000000	      0.00000000	     84.28869592	    -12.84416030	     35.60284095	     37.05290184	     63.16843705	      0.00000000	      0.00000000
      0.05000000	     -7.94663605	     -5.23085723	      1.78476968	     -0.24414437	      1.16804372	     -0.01781655	     68.36222784	     -7.04853198	     -7.56110811	     79.74435352	      1.39180153	     14.37920088	      1.91516579	      0.00000000	     51.97971367	    -12.12264391	      7.45712053	     86.06516786	      1.50212055	      6.08132217	     -4.85064490	      0.00000000	    -65.33525221	      5.42511887	      6.18250833	     88.77910945	    -15.97544801	     53.00790130	     32.56469586	     73.67804003	      0.00000000	      0.00000000	     84.36907387	    -12.69383235	     35.36789506	     36.87292963	     64.23131407	      0.00000000	      0.00000000
      0.05833333	     -7.84662601	     -5.00286424	      1.74679766	     -0.24421654	      1.16799418	     -0.01774731	     66.75215414	     -6.94154916	     -7.77709515	     77.26355626	      1.34850345	     13.49958121	      1.74331340	      0.00000000	     53.10187621	    -11.94632070	      7.69468922	     88.55185895	      1.54552150	      6.75161034	     -4.44378147	      0.00000000	    -65.38874166	      5.14573358	      5.97898671	     88.58805483	    -15.89148800	     52.40079508	     32.49611820	     74.29736666	      0.00000000	      0.00000000	     84.45013895	    -12.59285069	     35.30366271	     36.93857648	     64.42316185	      0.00000000	      0.00000000
